<?xml version="1.0" encoding="UTF-8"?>
<svg xmlns="http://www.w3.org/2000/svg" viewBox="0 0 719.25 982.13">
  <g id="pattern" opacity=".8">
    <path d="M429.58,308.63c6.91-15.39,11.93-33.08,14.42-53.4,4.8-34.56-.55-64.91-13.24-90.23,11.72-20.4,37.01-136.95,16.06-150.77-17.5-11.55-82.66,43.6-99.29,78.53-21.68-8.21-45.65-12.53-70.52-12.53-13.74,0-28.53,1.19-43.36,4.31C222.62,58.92,179.23-4.29,144,.23c-17.83,2.29-7.82,123.35-.81,144.93-12.58,20.45-21.37,46.94-24.19,81.07-2.69,32.57,2.45,60.27,12.66,83.38,33.82-12.29,70.99-37.11,85.34-80.38,3.82-11.52,7.12-22.89,9.99-34.06,0,.02,0,.04,0,.06,14.54,133.49,134.39,126.57,202.58,113.4Z"/>
  </g>
</svg>
